<?xml version="1.0" ?>
<!DOCTYPE svg  PUBLIC '-//W3C//DTD SVG 1.1//EN'  'http://www.w3.org/Graphics/SVG/1.1/DTD/svg11.dtd'>
<!-- Uploaded to: SVG Repo, www.svgrepo.com, Generator: SVG Repo Mixer Tools -->
<svg fill="#000000" width="800px" height="800px" viewBox="0 0 846.66 846.66" style="shape-rendering:geometricPrecision; text-rendering:geometricPrecision; image-rendering:optimizeQuality; fill-rule:evenodd; clip-rule:evenodd" version="1.1" xml:space="preserve" xmlns="http://www.w3.org/2000/svg" xmlns:xlink="http://www.w3.org/1999/xlink">
<defs>
<style type="text/css">
   <![CDATA[
    .fil0 {fill:black;fill-rule:nonzero}
   ]]>
  </style>
</defs>
<g id="Layer_x0020_1">
<path class="fil0" d="M466.87 135.6c27.19,0 27.19,41.35 0,41.35l-22.86 0 0 50.1 6.27 0c39.61,0 74.15,25.36 74.15,66.4 0,41.05 -34.54,66.41 -74.15,66.41l-6.27 0 0 17.14c0,27.19 -41.36,27.19 -41.36,0l0 -17.14 -22.86 0c-27.19,0 -27.19,-41.35 0,-41.35l22.86 0 0 -50.11 -6.27 0c-39.61,0 -74.15,-25.36 -74.15,-66.4 0,-41.04 34.54,-66.4 74.15,-66.4l6.27 0 0 -17.14c0,-27.19 41.36,-27.19 41.36,0l0 17.14 22.86 0zm166.33 498.97c55.88,0 101.19,45.3 101.19,101.19 0,55.88 -45.31,101.19 -101.19,101.19 -47.95,0 -89.35,-33.71 -99.08,-80.52l-221.58 0c-9.73,46.81 -51.13,80.52 -99.08,80.52 -55.88,0 -101.19,-45.31 -101.19,-101.19 0,-55.89 45.31,-101.19 101.19,-101.19 47.95,0 89.35,33.7 99.08,80.51l90.11 0 0 -229.33 -4.25 0c-91.48,0 -166.25,-74.77 -166.25,-166.25l0 -289.11c0,-11.42 9.26,-20.68 20.68,-20.68l341 0c11.42,0 20.68,9.26 20.68,20.68l0 289.11c0,91.48 -74.77,166.25 -166.25,166.25l-4.25 0 0 229.33 90.11 0c9.73,-46.81 51.13,-80.51 99.08,-80.51zm0 41.35c-33.05,0 -59.84,26.79 -59.84,59.84 0,33.05 26.79,59.84 59.84,59.84 33.05,0 59.84,-26.79 59.84,-59.84 0,-33.05 -26.79,-59.84 -59.84,-59.84zm-419.74 0c-33.05,0 -59.84,26.79 -59.84,59.84 0,33.05 26.79,59.84 59.84,59.84 33.05,0 59.84,-26.79 59.84,-59.84 0,-33.05 -26.79,-59.84 -59.84,-59.84zm184.94 -231.52l49.86 0c68.65,0 124.9,-56.25 124.9,-124.9l0 -268.44 -299.66 0 0 268.44c0,68.65 56.25,124.9 124.9,124.9zm4.25 -267.45l-6.27 0c-15.83,0 -32.8,7.19 -32.8,25.05 0,17.86 16.97,25.05 32.8,25.05l6.27 0 0 -50.1zm41.36 141.56l6.27 0c15.83,0 32.8,-7.19 32.8,-25.06 0,-17.86 -16.97,-25.05 -32.8,-25.05l-6.27 0 0 50.11z"/>
</g>
</svg>