<?xml version="1.0" ?>
<!-- Uploaded to: SVG Repo, www.svgrepo.com, Generator: SVG Repo Mixer Tools -->
<svg width="800px" height="800px" viewBox="0 0 512 512" id="Layer_1" version="1.1" xml:space="preserve" xmlns="http://www.w3.org/2000/svg" xmlns:xlink="http://www.w3.org/1999/xlink">
<style type="text/css">
	.st0{fill:#333333;}
</style>
<g>
<path class="st0" d="M112.6,138.2H285c3.9,0,7-3.1,7-7s-3.1-7-7-7H112.6c-3.9,0-7,3.1-7,7S108.8,138.2,112.6,138.2z"/>
<path class="st0" d="M82.5,187.5h232.6c3.9,0,7-3.1,7-7s-3.1-7-7-7H82.5c-3.9,0-7,3.1-7,7S78.7,187.5,82.5,187.5z"/>
<path class="st0" d="M322.1,223.9c0-3.9-3.1-7-7-7H82.5c-3.9,0-7,3.1-7,7s3.1,7,7,7h232.6C319,230.9,322.1,227.8,322.1,223.9z"/>
<path class="st0" d="M285.2,271.6l-33.5-13c-1.6-0.6-3.4-0.6-5.1,0l-31,12l-31-12c-1.6-0.6-3.4-0.6-5.1,0l-31,12l-31-12   c-3.6-1.4-7.7,0.4-9.1,4s0.4,7.7,4,9.1l33.5,13c1.6,0.6,3.4,0.6,5.1,0l31-12l31,12c1.6,0.6,3.4,0.6,5.1,0l31-12l31,12   c0.8,0.3,1.7,0.5,2.5,0.5c2.8,0,5.5-1.7,6.5-4.5C290.6,277,288.8,273,285.2,271.6z"/>
<path class="st0" d="M440.7,335.7c1-4.7,1.5-9.4,1.5-14.2c0-24.3-13.3-46.9-34.3-58.9V76.1c0-3.9-3.1-7-7-7H23.2c-3.9,0-7,3.1-7,7   v245.5c0,3.9,3.1,7,7,7h284c0.2,2.4,0.6,4.8,1.1,7.2l-53.1,53.1c-1.9,1.9-2.6,4.8-1.6,7.4c0.9,2.6,3.3,4.3,6,4.6l33,2.8l2.8,33   c0.2,2.7,2,5,4.6,6c0.8,0.3,1.6,0.4,2.4,0.4c1.8,0,3.6-0.7,5-2l53.1-53.1c4.6,1,9.4,1.5,14.2,1.5c4.8,0,9.5-0.5,14.2-1.5l53.1,53.1   c1.3,1.3,3.1,2,5,2c0.8,0,1.6-0.1,2.4-0.4c2.6-0.9,4.3-3.3,4.6-6l2.8-33l33-2.8c2.7-0.2,5-2,6-4.6c0.9-2.6,0.3-5.4-1.6-7.4   L440.7,335.7z M30.2,83.1H394v173.5c-0.1,0-0.3-0.1-0.4-0.1c-0.2-0.1-0.4-0.1-0.7-0.2c-0.9-0.3-1.9-0.5-2.8-0.7   c-0.2,0-0.4-0.1-0.6-0.1c-1.1-0.2-2.2-0.5-3.3-0.6c-0.3,0-0.5-0.1-0.8-0.1c-1-0.2-2-0.3-3-0.4c-0.1,0-0.3,0-0.4,0   c-1.1-0.1-2.2-0.2-3.4-0.3c-0.3,0-0.5,0-0.8,0c-1.1-0.1-2.3-0.1-3.4-0.1c-1.1,0-2.3,0-3.4,0.1c-0.4,0-0.7,0.1-1.1,0.1   c-0.7,0-1.5,0.1-2.2,0.2c-0.4,0-0.9,0.1-1.3,0.2c-0.7,0.1-1.3,0.2-2,0.3c-0.5,0.1-0.9,0.2-1.4,0.2c-0.6,0.1-1.2,0.2-1.9,0.3   c-0.5,0.1-0.9,0.2-1.4,0.3c-0.6,0.1-1.2,0.3-1.8,0.4c-0.5,0.1-0.9,0.2-1.4,0.4c-0.6,0.2-1.2,0.3-1.7,0.5c-0.5,0.1-0.9,0.3-1.4,0.4   c-0.6,0.2-1.1,0.4-1.7,0.6c-0.5,0.2-0.9,0.3-1.3,0.5c-0.6,0.2-1.1,0.4-1.7,0.7c-0.4,0.2-0.9,0.4-1.3,0.6c-0.5,0.2-1.1,0.5-1.6,0.7   c-0.4,0.2-0.8,0.4-1.3,0.6c-0.5,0.3-1.1,0.5-1.6,0.8c-0.4,0.2-0.8,0.4-1.2,0.6c-0.5,0.3-1.1,0.6-1.6,0.9c-0.4,0.2-0.8,0.4-1.1,0.7   c-0.5,0.3-1.1,0.7-1.6,1c-0.4,0.2-0.7,0.5-1.1,0.7c-0.6,0.4-1.1,0.8-1.7,1.2c-0.3,0.2-0.6,0.4-0.9,0.7c-0.6,0.5-1.3,1-1.9,1.5   c-0.2,0.2-0.4,0.3-0.6,0.5c-0.8,0.7-1.6,1.4-2.4,2.1c0,0,0,0,0,0c-0.8,0.7-1.5,1.4-2.3,2.2c-0.2,0.2-0.4,0.4-0.6,0.7   c-0.5,0.5-1,1.1-1.5,1.6c-0.3,0.3-0.5,0.6-0.8,0.9c-0.4,0.5-0.9,1-1.3,1.5c-0.3,0.3-0.5,0.6-0.8,1c-0.4,0.5-0.8,1-1.2,1.5   c-0.3,0.3-0.5,0.7-0.8,1c-0.4,0.5-0.7,1-1.1,1.5c-0.2,0.4-0.5,0.7-0.7,1.1c-0.3,0.5-0.7,1-1,1.6c-0.2,0.4-0.5,0.8-0.7,1.2   c-0.3,0.5-0.6,1.1-0.9,1.6c-0.2,0.4-0.4,0.8-0.6,1.2c-0.3,0.5-0.6,1.1-0.8,1.6c-0.2,0.4-0.4,0.8-0.6,1.2c-0.3,0.6-0.5,1.1-0.8,1.7   c-0.2,0.4-0.4,0.8-0.5,1.2c-0.2,0.6-0.5,1.2-0.7,1.7c-0.2,0.4-0.3,0.8-0.5,1.3c-0.2,0.6-0.4,1.2-0.6,1.8c-0.1,0.4-0.3,0.8-0.4,1.3   c-0.2,0.6-0.4,1.3-0.5,1.9c-0.1,0.4-0.2,0.8-0.3,1.2c-0.2,0.7-0.3,1.4-0.5,2.1c-0.1,0.4-0.2,0.7-0.2,1.1c-0.2,0.8-0.3,1.7-0.5,2.5   c0,0.2-0.1,0.5-0.1,0.7c-0.2,1.1-0.3,2.2-0.4,3.3H30.2V83.1z M308,420.3l-2-23.8c-0.3-3.4-3-6.1-6.4-6.4l-23.8-2l37.5-37.5   c0.1,0.1,0.1,0.3,0.2,0.4c0.3,0.6,0.6,1.2,0.9,1.8c0.1,0.2,0.2,0.5,0.4,0.7c0.4,0.7,0.7,1.3,1.1,2c0.1,0.1,0.1,0.2,0.2,0.3   c0.4,0.8,0.9,1.5,1.4,2.2c0.1,0.2,0.3,0.4,0.4,0.6c0.4,0.6,0.7,1.1,1.1,1.6c0.1,0.2,0.3,0.4,0.4,0.6c0.5,0.7,1,1.3,1.5,2   c0,0,0.1,0.1,0.1,0.1c0.5,0.7,1.1,1.4,1.6,2c0.2,0.2,0.3,0.4,0.5,0.6c0.4,0.5,0.9,1,1.3,1.5c0.2,0.2,0.3,0.4,0.5,0.6   c1.2,1.3,2.4,2.5,3.7,3.7c0.2,0.2,0.4,0.3,0.6,0.5c0.5,0.4,1,0.9,1.5,1.3c0.2,0.2,0.4,0.3,0.6,0.5c0.7,0.6,1.3,1.1,2,1.6   c0.1,0,0.1,0.1,0.2,0.1c0.6,0.5,1.3,1,1.9,1.4c0.2,0.2,0.4,0.3,0.6,0.5c0.5,0.4,1.1,0.7,1.6,1.1c0.2,0.1,0.4,0.3,0.6,0.4   c0.7,0.5,1.5,0.9,2.2,1.4c0.1,0.1,0.2,0.1,0.3,0.2c0.7,0.4,1.3,0.7,2,1.1c0.2,0.1,0.5,0.2,0.7,0.4c0.6,0.3,1.2,0.6,1.8,0.9   c0.1,0.1,0.3,0.1,0.4,0.2L308,420.3z M360,373.3c-4.5-1.3-8.8-3.1-12.7-5.4c-1.3-0.7-2.5-1.5-3.7-2.4c-1.1-0.7-2.1-1.5-3.1-2.4   c-1.4-1.1-2.8-2.3-4-3.6c-6.4-6.4-11.3-14.5-13.8-23.5c-1.3-4.7-2-9.6-2-14.5c0-29.6,24.1-53.8,53.7-53.8c1,0,2,0,3.1,0.1   c1.2,0.1,2.3,0.2,3.5,0.3c5.9,0.7,11.5,2.4,16.9,5c18.7,9.1,30.3,27.6,30.3,48.4c0,4.9-0.7,9.8-2,14.5c-0.3,1.1-0.7,2.2-1,3.3   c-0.8,2.2-1.7,4.3-2.7,6.4c-0.5,1-1.1,2-1.7,3c-2.3,3.9-5.1,7.6-8.4,10.8C406,366,398,370.8,389,373.3   C379.6,375.9,369.4,375.9,360,373.3z M449.4,390.1c-3.4,0.3-6.1,3-6.4,6.4l-2,23.8l-37.5-37.5c0.1-0.1,0.3-0.2,0.4-0.2   c0.6-0.3,1.2-0.6,1.8-0.9c0.2-0.1,0.5-0.2,0.7-0.4c0.7-0.4,1.3-0.7,2-1.1c0.1-0.1,0.2-0.1,0.3-0.2c0.8-0.4,1.5-0.9,2.2-1.4   c0.2-0.1,0.4-0.3,0.6-0.4c0.6-0.4,1.1-0.7,1.6-1.1c0.2-0.1,0.4-0.3,0.6-0.4c0.7-0.5,1.3-1,2-1.5c0,0,0.1-0.1,0.1-0.1   c0.7-0.5,1.4-1.1,2-1.6c0.2-0.2,0.4-0.3,0.6-0.5c0.5-0.4,1-0.9,1.5-1.3c0.2-0.2,0.4-0.3,0.6-0.5c0.6-0.6,1.3-1.2,1.9-1.8   c0,0,0,0,0,0c0.6-0.6,1.2-1.2,1.8-1.9c0.2-0.2,0.3-0.4,0.5-0.6c0.4-0.5,0.9-1,1.3-1.4c0.2-0.2,0.3-0.4,0.5-0.6   c0.6-0.7,1.1-1.3,1.6-2c0.1-0.1,0.1-0.1,0.2-0.2c0.5-0.6,0.9-1.2,1.4-1.9c0.2-0.2,0.3-0.5,0.5-0.7c0.4-0.5,0.7-1,1.1-1.6   c0.1-0.2,0.3-0.4,0.4-0.7c0.5-0.7,0.9-1.4,1.3-2.2c0.1-0.1,0.2-0.3,0.2-0.4c0.4-0.6,0.7-1.2,1-1.9c0.1-0.3,0.3-0.5,0.4-0.8   c0.3-0.6,0.6-1.1,0.8-1.7c0.1-0.2,0.2-0.3,0.2-0.5l37.5,37.5L449.4,390.1z"/>
<path class="st0" d="M396.9,332.9c0-9-5.5-14.2-18.3-17.4v-16.2c2.9,0.7,5.7,1.9,8.7,3.7c0.8,0.5,1.7,0.8,2.5,0.8   c2.6,0,4.7-2,4.7-4.6c0-2-1.2-3.3-2.5-4c-3.9-2.4-8.1-4-13.1-4.6v-1.9c0-2-1.6-3.6-3.6-3.6c-2,0-3.7,1.6-3.7,3.6v1.8   c-10.5,0.8-17.7,7.1-17.7,16.1c0,9.5,5.7,14.2,18,17.4v16.6c-4.6-0.8-8.5-2.8-12.5-5.6c-0.8-0.6-1.8-0.9-2.8-0.9   c-2.6,0-4.6,2-4.6,4.6c0,1.8,0.8,3.1,2.3,4c5.1,3.6,11,5.9,17.3,6.6v5.2c0,2,1.7,3.6,3.7,3.6c2,0,3.6-1.6,3.6-3.6v-5.1   C389.7,348.3,396.9,342.2,396.9,332.9z M372,313.8c-6.5-2.1-8.1-4.3-8.1-7.8c0-3.7,2.7-6.6,8.1-7.1V313.8z M378.6,340.8v-15.3   c6.5,2,8.3,4.3,8.3,8C387,337.6,384,340.2,378.6,340.8z"/>
</g>
</svg>