<?xml version="1.0" ?>
<!-- Uploaded to: SVG Repo, www.svgrepo.com, Generator: SVG Repo Mixer Tools -->
<svg width="800px" height="800px" viewBox="0 0 512 512" id="Layer_1" version="1.1" xml:space="preserve" xmlns="http://www.w3.org/2000/svg" xmlns:xlink="http://www.w3.org/1999/xlink">
<style type="text/css">
	.st0{fill:#333333;}
</style>
<g>
<path class="st0" d="M222.6,151.7c5.9,22.1,22.1,36.9,45.1,36.9c16,0,26.4-7.3,34.8-18.2c0.9-1.1,1.9-3.1,1.9-5.4   c0-4.7-3.9-8.4-8.6-8.4c-3,0-5.1,1.2-6.7,3.1c-5.9,7.3-12,11.8-21.3,11.8c-12.3,0-21.2-7.3-25.5-19.8h28c3.6,0,6.5-3,6.5-6.7   c0-3.6-3-6.7-6.5-6.7h-30.8c-0.2-2-0.2-4-0.2-6.2c0-2.3,0-4.7,0.3-6.8h30.6c3.6,0,6.5-3,6.5-6.5c0-3.7-3-6.7-6.5-6.7h-27.7   c4.4-11.7,12.8-19,24-19c9.6,0,15.7,3.9,21.6,11c1.2,1.6,3.4,3.1,6.7,3.1c5,0,9.2-4,9.2-9c0-2.8-1.2-5.1-2.5-6.4   c-8.1-9.3-18-15.9-34.5-15.9c-22.1,0-38.1,15.1-44.2,36.1h-8.7c-3.7,0-6.7,3-6.7,6.7c0,3.6,3,6.5,6.7,6.5h6.2   c-0.3,2.3-0.3,4.8-0.3,7.2c0,2,0,4,0.2,5.9h-6.1c-3.7,0-6.7,3.1-6.7,6.7c0,3.7,3,6.7,6.7,6.7H222.6z"/>
<path class="st0" d="M397.1,368.7v-29.9c5.3,1.2,10.6,3.6,16,6.8c1.6,0.9,3.1,1.4,4.7,1.4c4.8,0,8.7-3.7,8.7-8.6   c0-3.7-2.2-6.1-4.7-7.5c-7.2-4.5-14.9-7.5-24.1-8.6V319c0-3.7-3-6.7-6.7-6.7c-3.7,0-6.8,3-6.8,6.7v3.3   c-19.4,1.6-32.7,13.1-32.7,29.7c0,17.6,10.6,26.1,33.3,32v30.6c-8.6-1.6-15.7-5.1-23-10.4c-1.4-1.1-3.3-1.7-5.1-1.7   c-4.8,0-8.6,3.7-8.6,8.6c0,3.3,1.6,5.8,4.2,7.5c9.5,6.7,20.2,10.9,31.9,12.1v9.6c0,3.7,3.1,6.7,6.8,6.7c3.7,0,6.7-3,6.7-6.7v-9.3   c19.8-1.9,33.1-13.2,33.1-30.3C430.9,384.1,420.8,374.6,397.1,368.7z M384.9,365.4c-12-3.9-14.9-7.9-14.9-14.5   c0-6.8,5-12.1,14.9-13.1V365.4z M397.1,415.3V387c12,3.7,15.4,7.9,15.4,14.8C412.5,409.3,407.1,414.3,397.1,415.3z"/>
<path class="st0" d="M156,418.3h-42.9v-26.6h31.4c4.4,0,8.1-3.6,8.1-8.1c0-4.4-3.7-8.1-8.1-8.1h-31.4v-13.8   c0-6.5,1.9-11.7,5.1-15.1c3-2.8,6.5-4.4,11.5-4.4c7.2,0,11.8,3,16.6,8.1c1.2,1.4,3.4,3,6.8,3c5.3,0,9.5-4,9.5-9.3   c0-3-1.2-5.1-3-6.8c-6.8-7.3-16-12.6-30.3-12.6c-11.2,0-20.1,3.4-26.1,9.6c-6.2,6.2-9.6,15.7-9.6,27.1v14.3h-5   c-4.5,0-8.1,3.7-8.1,8.1c0,4.5,3.6,8.1,8.1,8.1h5v27.4l-7.9,2.3c-3.4,1.1-5.1,3.7-5.1,6.8c0,3.7,3,6.7,7.3,6.7H156   c4.7,0,8.4-3.6,8.4-8.2C164.4,422,160.7,418.3,156,418.3z"/>
<path class="st0" d="M389.5,276.1c-12.7,0-25,2.3-36.7,6.7l-37.7-65.4c27.6-19.2,44.6-51.3,44.6-85.1   c0-57.1-46.5-103.6-103.6-103.6S152.4,75.1,152.4,132.3c0,33.9,16.9,65.9,44.6,85.1l-37.7,65.4c-11.7-4.4-24-6.7-36.7-6.7   c-57.1,0-103.6,46.5-103.6,103.6c0,57.1,46.5,103.6,103.6,103.6c27.1,0,52.7-10.4,72.1-29.2c17.8-17.2,28.6-39.8,31-64.2h60.8   c2.4,24.4,13.2,47,31,64.2c19.4,18.9,45.1,29.2,72.1,29.2c57.1,0,103.6-46.5,103.6-103.6C493.1,322.6,446.7,276.1,389.5,276.1z    M166.4,132.3c0-49.4,40.2-89.6,89.6-89.6s89.6,40.2,89.6,89.6c0,31.8-16.3,60.5-43.5,76.9c-13.9,8.3-29.8,12.7-46.1,12.7   c-3.1,0-6.1-0.2-9.1-0.5c-13.1-1.3-25.7-5.5-37-12.3C182.7,192.8,166.4,164,166.4,132.3z M208.9,224.6c1,0.5,1.9,1,2.9,1.4   c0.3,0.1,0.6,0.3,0.9,0.4c0.7,0.3,1.4,0.7,2.1,1c0.4,0.2,0.8,0.3,1.1,0.5c0.6,0.3,1.3,0.5,1.9,0.8c0.4,0.2,0.8,0.3,1.2,0.5   c0.6,0.2,1.3,0.5,1.9,0.7c0.4,0.1,0.8,0.3,1.2,0.4c0.6,0.2,1.3,0.4,1.9,0.6c0.4,0.1,0.8,0.3,1.2,0.4c0.7,0.2,1.4,0.4,2.1,0.6   c0.4,0.1,0.7,0.2,1.1,0.3c1,0.3,1.9,0.5,2.9,0.7c0.1,0,0.2,0.1,0.3,0.1c1.1,0.3,2.1,0.5,3.2,0.7c0.3,0.1,0.7,0.1,1,0.2   c0.8,0.1,1.5,0.3,2.3,0.4c0.4,0.1,0.8,0.1,1.2,0.2c0.7,0.1,1.4,0.2,2,0.3c0.4,0.1,0.9,0.1,1.3,0.2c0.7,0.1,1.3,0.2,2,0.2   c0.4,0,0.9,0.1,1.3,0.1c0.7,0.1,1.4,0.1,2,0.2c0.4,0,0.8,0.1,1.3,0.1c0.7,0,1.5,0.1,2.2,0.1c0.4,0,0.7,0,1.1,0   c1.1,0,2.2,0.1,3.3,0.1s2.2,0,3.3-0.1c0.4,0,0.7,0,1.1,0c0.7,0,1.5-0.1,2.2-0.1c0.4,0,0.8-0.1,1.3-0.1c0.7-0.1,1.4-0.1,2-0.2   c0.4,0,0.9-0.1,1.3-0.1c0.7-0.1,1.3-0.2,2-0.2c0.4-0.1,0.9-0.1,1.3-0.2c0.7-0.1,1.4-0.2,2-0.3c0.4-0.1,0.8-0.1,1.2-0.2   c0.7-0.1,1.5-0.3,2.2-0.4c0.3-0.1,0.7-0.1,1-0.2c1.1-0.2,2.1-0.5,3.2-0.7c0.1,0,0.2-0.1,0.3-0.1c1-0.2,1.9-0.5,2.8-0.7   c0.4-0.1,0.7-0.2,1.1-0.3c0.7-0.2,1.4-0.4,2.1-0.6c0.4-0.1,0.8-0.3,1.2-0.4c0.6-0.2,1.3-0.4,1.9-0.6c0.4-0.1,0.8-0.3,1.3-0.4   c0.6-0.2,1.2-0.4,1.8-0.7c0.4-0.2,0.8-0.3,1.3-0.5c0.6-0.2,1.3-0.5,1.9-0.8c0.4-0.2,0.8-0.3,1.2-0.5c0.7-0.3,1.4-0.6,2.1-0.9   c0.3-0.1,0.6-0.3,0.9-0.4c1-0.5,1.9-0.9,2.9-1.4l37,64c-1,0.6-2.1,1.1-3.1,1.7c-0.3,0.2-0.6,0.4-0.9,0.6c-0.7,0.4-1.4,0.9-2.1,1.3   c-0.4,0.3-0.8,0.5-1.2,0.8c-0.6,0.4-1.2,0.8-1.8,1.2c-0.4,0.3-0.8,0.6-1.2,0.9c-0.6,0.4-1.1,0.8-1.7,1.2c-0.4,0.3-0.8,0.6-1.3,0.9   c-0.5,0.4-1.1,0.8-1.6,1.2c-0.4,0.3-0.8,0.7-1.2,1c-0.5,0.4-1,0.8-1.5,1.3c-0.4,0.3-0.8,0.7-1.2,1c-0.5,0.4-1,0.9-1.5,1.3   c-0.4,0.4-0.8,0.7-1.1,1.1c-0.5,0.5-1,0.9-1.5,1.4c-0.4,0.3-0.7,0.7-1.1,1c-0.5,0.5-1,1.1-1.5,1.6c-0.3,0.3-0.6,0.6-0.9,0.9   c-0.8,0.8-1.5,1.7-2.3,2.6c-0.2,0.2-0.4,0.4-0.5,0.6c-0.6,0.7-1.2,1.4-1.7,2.1c-0.3,0.4-0.6,0.7-0.9,1.1c-0.4,0.6-0.9,1.1-1.3,1.7   c-0.3,0.4-0.6,0.8-0.9,1.2c-0.4,0.5-0.8,1.1-1.2,1.6c-0.3,0.4-0.6,0.9-0.9,1.3c-0.4,0.5-0.7,1.1-1.1,1.6c-0.3,0.4-0.6,0.9-0.9,1.3   c-0.3,0.5-0.7,1.1-1,1.6c-0.3,0.5-0.5,0.9-0.8,1.4c-0.3,0.6-0.6,1.1-1,1.7c-0.3,0.5-0.5,0.9-0.8,1.4c-0.3,0.6-0.6,1.2-0.9,1.8   c-0.2,0.5-0.5,0.9-0.7,1.4c-0.3,0.6-0.6,1.3-0.9,1.9c-0.2,0.4-0.4,0.8-0.6,1.3c-0.3,0.8-0.7,1.5-1,2.3c-0.1,0.3-0.3,0.6-0.4,0.9   c-0.4,1.1-0.9,2.1-1.3,3.2c-0.1,0.4-0.3,0.7-0.4,1.1c-0.3,0.8-0.6,1.5-0.8,2.3c-0.2,0.4-0.3,0.9-0.4,1.3c-0.2,0.7-0.4,1.3-0.6,2   c-0.1,0.5-0.3,1-0.4,1.4c-0.2,0.7-0.4,1.3-0.5,2c-0.1,0.5-0.3,1-0.4,1.5c-0.2,0.7-0.3,1.3-0.5,2c-0.1,0.5-0.2,1-0.3,1.5   c-0.1,0.7-0.3,1.3-0.4,2c-0.1,0.5-0.2,1-0.3,1.5c-0.1,0.7-0.2,1.4-0.3,2c-0.1,0.5-0.2,1-0.2,1.5c-0.1,0.7-0.2,1.4-0.3,2.1   c-0.1,0.5-0.1,0.9-0.2,1.4c-0.1,0.8-0.2,1.6-0.2,2.4c0,0.4-0.1,0.8-0.1,1.2c-0.1,1.2-0.2,2.4-0.2,3.6h-60c0-1.2-0.1-2.4-0.2-3.6   c0-0.4-0.1-0.8-0.1-1.2c-0.1-0.8-0.1-1.6-0.2-2.4c-0.1-0.5-0.1-0.9-0.2-1.4c-0.1-0.7-0.2-1.4-0.3-2.1c-0.1-0.5-0.2-1-0.2-1.5   c-0.1-0.7-0.2-1.4-0.3-2c-0.1-0.5-0.2-1-0.3-1.5c-0.1-0.7-0.3-1.3-0.4-2c-0.1-0.5-0.2-1-0.3-1.5c-0.2-0.7-0.3-1.3-0.5-2   c-0.1-0.5-0.2-1-0.4-1.5c-0.2-0.7-0.4-1.3-0.6-2c-0.1-0.5-0.3-1-0.4-1.4c-0.2-0.7-0.4-1.4-0.6-2c-0.1-0.4-0.3-0.9-0.4-1.3   c-0.3-0.8-0.5-1.5-0.8-2.3c-0.1-0.3-0.2-0.7-0.4-1c-0.4-1.1-0.8-2.2-1.3-3.2c-0.1-0.3-0.2-0.6-0.4-0.8c-0.3-0.8-0.7-1.6-1-2.4   c-0.2-0.4-0.4-0.8-0.6-1.2c-0.3-0.6-0.6-1.3-0.9-1.9c-0.2-0.4-0.5-0.9-0.7-1.3c-0.3-0.6-0.6-1.2-0.9-1.8c-0.2-0.4-0.5-0.9-0.7-1.3   c-0.3-0.6-0.7-1.2-1-1.7c-0.3-0.4-0.5-0.9-0.8-1.3c-0.3-0.6-0.7-1.1-1-1.7c-0.3-0.4-0.6-0.9-0.8-1.3c-0.4-0.6-0.7-1.1-1.1-1.7   c-0.3-0.4-0.6-0.8-0.9-1.2c-0.4-0.6-0.8-1.1-1.2-1.7c-0.3-0.4-0.6-0.8-0.9-1.2c-0.5-0.6-0.9-1.2-1.4-1.8c-0.3-0.3-0.5-0.7-0.8-1   c-0.6-0.8-1.3-1.6-2-2.3c-0.1-0.1-0.2-0.2-0.3-0.4c-0.8-0.9-1.5-1.8-2.3-2.6c-0.3-0.3-0.5-0.5-0.8-0.8c-0.6-0.6-1.1-1.2-1.7-1.7   c-0.3-0.3-0.6-0.6-1-1c-0.5-0.5-1-1-1.6-1.5c-0.4-0.3-0.7-0.7-1.1-1c-0.5-0.5-1-0.9-1.6-1.4c-0.4-0.3-0.8-0.7-1.1-1   c-0.5-0.4-1.1-0.9-1.6-1.3c-0.4-0.3-0.8-0.6-1.2-0.9c-0.5-0.4-1.1-0.9-1.6-1.3c-0.4-0.3-0.8-0.6-1.2-0.9c-0.6-0.4-1.2-0.8-1.7-1.3   c-0.4-0.3-0.8-0.6-1.2-0.8c-0.6-0.4-1.3-0.8-1.9-1.3c-0.4-0.2-0.7-0.5-1.1-0.7c-0.7-0.5-1.5-0.9-2.3-1.4c-0.3-0.2-0.5-0.3-0.8-0.5   c-1-0.6-2-1.2-3.1-1.7L208.9,224.6z M122.5,469.3c-49.4,0-89.6-40.2-89.6-89.6c0-49.4,40.2-89.6,89.6-89.6   c12.8,0,25.2,2.7,36.8,7.9c32.1,14.5,52.8,46.6,52.8,81.7c0,1,0,1.9,0,2.9c0,0,0,0,0,0.1C210.5,431.3,171.1,469.3,122.5,469.3z    M389.5,469.3c-48.7,0-88-38.1-89.6-86.7c0-1,0-1.9,0-2.9c0-6.6,0.7-13.1,2.1-19.4c6-27.2,24.6-50.6,50.7-62.4   c11.6-5.2,24-7.9,36.8-7.9c49.4,0,89.6,40.2,89.6,89.6C479.1,429.1,438.9,469.3,389.5,469.3z"/>
</g>
</svg>