<svg xmlns="http://www.w3.org/2000/svg" viewBox="0 0 366 100" width="366" height="100">
  <!-- 360T logo -->
  <g>
    <!-- "360" text -->
    <path d="M20,50 C20,30 35,15 55,15 L90,15 L90,30 L55,30 C43,30 35,38 35,50 C35,62 43,70 55,70 L90,70 L90,85 L55,85 C35,85 20,70 20,50 Z" fill="#00973A" />
    <circle cx="120" cy="50" r="35" fill="#00973A" />
    <path d="M165,15 L200,15 C220,15 235,30 235,50 C235,70 220,85 200,85 L165,85 L165,70 L200,70 C212,70 220,62 220,50 C220,38 212,30 200,30 L165,30 L165,15 Z" fill="#00973A" />
    
    <!-- "T" letter -->
    <rect x="250" y="15" width="70" height="20" fill="#CCCCCC" />
    <rect x="275" y="15" width="20" height="70" fill="#CCCCCC" />
  </g>
</svg> 